# AST/ASF file generated using VICON BodyLanguage
# -----------------------------------------------
:version 1.10
:name VICON
:units
  mass 1.0
  length 0.45
  angle deg
:documentation
   .ast/.asf automatically generated from VICON data using
   VICON BodyBuilder and BodyLanguage model FoxedUp or BRILLIANT.MOD
:root
   order TX TY TZ RX RY RZ
   axis XYZ
   position 0 0 0  
   orientation 0 0 0 
:bonedata
  begin
     id 1 
     name lhipjoint
     direction 0.521689 -0.742065 0.420928 
     length 2.47002 
     axis 0 0 0  XYZ
  end
  begin
     id 2 
     name lfemur
     direction 0.34202 -0.939693 0  
     length 7.24654  
     axis 0 0 20  XYZ
    dof rx ry rz
    limits (-160.0 20.0)
           (-70.0 70.0)
           (-60.0 70.0)
  end
  begin
     id 3 
     name ltibia
     direction 0.34202 -0.939693 0   
     length 8.04849   
     axis 0 0 20   XYZ
    dof rx
    limits (-10.0 170.0)
  end
  begin
     id 4 
     name lfoot
     direction 0.0745411 -0.2048 0.975961   
     length 1.72367   
     axis -90 7.62852e-016 20   XYZ
    dof rx rz
    limits (-45.0 90.0)
           (-70.0 20.0)
  end
  begin
     id 5 
     name ltoes
     direction 1.53556e-011 -4.21901e-011 1   
     length 0.87311   
     axis -90 7.62852e-016 20   XYZ
    dof rx
    limits (-90.0 20.0)
  end
  begin
     id 6 
     name rhipjoint
     direction -0.52849 -0.738415 0.418857   
     length 2.48223  
     axis 0 0 0  XYZ 
  end
  begin
     id 7 
     name rfemur
     direction -0.34202 -0.939693 0   
     length 7.15571   
     axis 0 0 -20   XYZ
    dof rx ry rz
    limits (-160.0 20.0)
           (-70.0 70.0)
           (-70.0 60.0)
  end
  begin
     id 8 
     name rtibia
     direction -0.34202 -0.939693 0   
     length 7.81659   
     axis 0 0 -20   XYZ
    dof rx
    limits (-10.0 170.0)
 end
 begin
     id 9 
     name rfoot
     direction -0.0917348 -0.252039 0.963359   
     length 1.84382  
     axis -90 -7.62852e-016 -20   XYZ
    dof rx rz
    limits (-45.0 90.0)
           (-20.0 70.0)
  end
  begin
     id 10 
     name rtoes
     direction -1.53551e-011 -4.21879e-011 1   
     length 0.927771   
     axis -90 -7.62852e-016 -20   XYZ
    dof rx
    limits (-90.0 20.0)
  end
  begin
     id 11 
     name lowerback
     direction 0.00583058 0.999822 0.0179296   
     length 2.1429   
     axis 0 0 0   XYZ
    dof rx ry rz
    limits (-20.0 45.0)
           (-30.0 30.0)
           (-30.0 30.0)
  end
  begin
     id 12 
     name upperback
     direction -0.0137999 0.999752 -0.0175071   
     length 2.14252   
     axis 0 0 0   XYZ
    dof rx ry rz
    limits (-20.0 45.0)
           (-30.0 30.0)
           (-30.0 30.0)
  end
  begin
     id 13 
     name thorax
     direction -0.0158036 0.99955 -0.0254909   
     length 2.1383   
     axis 0 0 0   XYZ
    dof rx ry rz
    limits (-20.0 45.0)
           (-30.0 30.0)
           (-30.0 30.0)
  end
  begin
     id 14 
     name lowerneck
     direction -0.0101179 0.999403 -0.0330262   
     length 1.65808   
     axis 0 0 0   XYZ
    dof rx ry rz
    limits (-20.0 45.0)
           (-30.0 30.0)
           (-30.0 30.0)
  end
  begin
     id 15 
     name upperneck
     direction 0.0497734 0.995978 -0.074501   
     length 1.5897   
     axis 0 0 0   XYZ
    dof rx ry rz
    limits (-20.0 45.0)
           (-30.0 30.0)
           (-30.0 30.0)
  end
  begin
     id 16
     name head
     direction 0.0189524 0.999519 -0.0245438  
     length 1.74024  
     axis 0 0 0   XYZ
    dof rx ry rz
    limits (-20.0 45.0)
           (-30.0 30.0)
           (-30.0 30.0)
  end
  begin
     id 17 
     name lclavicle
     direction 0.945604 0.324422 0.0241537  
     length 3.59089  
     axis 0 0 0   XYZ
    dof ry rz
    limits (-20.0 10.0)
           (0.0 20.0)
  end
  begin
     id 18 
     name lhumerus
     direction 1 -4.48964e-011 -2.63524e-027   
     length 5.2391   
     axis 180 -30 -90   XYZ
    dof rx ry rz
    limits (-60.0 90.0)
           (-90.0 90.0)
           (-90.0 90.0)
  end
  begin
     id 19
     name lradius
     direction 1 -4.48969e-011 3.86978e-028   
     length 3.31467   
     axis 180 -30 -90   XYZ
    dof rx
    limits (-10.0 170.0)
  end
  begin
     id 20
     name lwrist
     direction 1 -4.48963e-011 7.20928e-028   
     length 1.65734   
     axis -5.52449e-016 90 90   XYZ
    dof ry
    limits (-180.0 0.0)
 end
  begin
     id 21 
     name lhand
     direction 1 -4.48964e-011 1.44186e-027   
     length 0.9659   
     axis -9.20027e-016 90 90   XYZ
    dof rx rz
    limits (-90.0 90.0)
           (-45.0 45.0)
  end
  begin
     id 22 
     name lfingers
     direction 1 -4.48965e-011 2.88371e-027   
     length 0.778733   
     axis -1.84005e-015 90 90   XYZ
    dof rx
    limits (0.0 90.0)
  end
  begin
     id 23
     name lthumb
     direction 0.707107 -6.34931e-011 0.707107   
     length 1.11811   
     axis -90 45 2.85299e-015   XYZ
    dof rx rz
    limits (-45.0 45.0)
           (-45.0 45.0)
  end
  begin
     id 24 
     name rclavicle
     direction -0.923762 0.370785 0.0958234   
     length 3.54196  
     axis 0 0 0   XYZ 
    dof ry rz
    limits (-10.0 20.0)
           (-20.0 0.0)
  end
  begin
     id 25 
     name rhumerus
     direction -1 -4.48966e-011 1.18702e-017  
     length 5.30252   
     axis 180 30 90   XYZ
    dof rx ry rz
    limits (-90.0 60.0)
           (-90.0 90.0)
           (-90.0 90.0)
  end
  begin
     id 26 
     name rradius
     direction -1 -4.48966e-011 4.46736e-027   
     length 3.67875   
     axis 180 30 90   XYZ
    dof rx
    limits (-10.0 170.0)
  end
  begin
     id 27 
     name rwrist
     direction -1 -4.48966e-011 7.20928e-028   
     length 1.83937   
     axis -5.52449e-016 -90 -90   XYZ
    dof ry
    limits (-180.0 0.0)
  end
  begin
     id 28
     name rhand
     direction -1 -4.48973e-011 1.44186e-027   
     length 0.594811   
     axis -9.20027e-016 -90 -90   XYZ
    dof rx rz
    limits (-90.0 90.0)
           (-45.0 45.0)
  end
  begin
     id 29
     name rfingers
     direction -1 -4.48963e-011 2.88371e-027   
     length 0.479552   
     axis -1.84005e-015 -90 -90   XYZ
    dof rx
    limits (0.0 90.0)
  end
  begin
     id 30
     name rthumb
     direction -0.707107 -6.34932e-011 0.707107   
     length 0.688544   
     axis -90 -45 -2.85299e-015   XYZ
    dof rx rz
    limits (-45.0 45.0)
           (-45.0 45.0)
  end
:hierarchy
  begin
    root lhipjoint rhipjoint lowerback
    lhipjoint lfemur
    lfemur ltibia
    ltibia lfoot
    lfoot ltoes
    rhipjoint rfemur
    rfemur rtibia
    rtibia rfoot
    rfoot rtoes
    lowerback upperback
    upperback thorax
    thorax lowerneck lclavicle rclavicle
    lowerneck upperneck
    upperneck head
    lclavicle lhumerus
    lhumerus lradius
    lradius lwrist
    lwrist lhand lthumb
    lhand lfingers
    rclavicle rhumerus
    rhumerus rradius
    rradius rwrist
    rwrist rhand rthumb
    rhand rfingers
  end

#!OML:ASF E:\acrobat2\Project_11_07_03\Capture day 1\Session 1\Acrobat.ASF
:FULLY-SPECIFIED
:DEGREES
38
root 10.4138 20.3451 -16.0902 4.76956 -4.72365 -4.12632
lowerback -6.37527 -1.4628 2.35286
upperback 1.0866 -2.15833 0.377943
thorax 4.63067 -1.01145 -1.14915
lowerneck 2.36578 -8.20044 -7.41857
upperneck 3.37491 -11.484 11.7473
head 1.72579 -5.74779 4.52146
rclavicle 2.13445e-014 -1.19271e-014
rhumerus -38.9794 -3.79371 -80.1609
rradius 31.8477
rwrist 2.43843
rhand -1.3382 -47.9003
rfingers 7.12502
rthumb 24.308 -76.3791
lclavicle 2.13445e-014 -1.19271e-014
lhumerus -30.5627 17.7529 73.7192
lradius 31.1357
lwrist 162.182
lhand -27.7577 11.5884
lfingers 7.12502
lthumb -1.15191 41.565
rfemur -12.9821 8.83089 22.3704
rtibia 29.8957
rfoot -29.4793 -9.23432
rtoes 18.7326
lfemur -19.8312 -4.03821 -11.7383
ltibia 43.74
lfoot -29.0714 -9.03902
ltoes 4.01448
39
root 10.4161 20.3454 -16.094 4.7512 -4.7513 -4.09964
lowerback -6.30763 -1.45304 2.33969
upperback 1.04768 -2.14054 0.356658
thorax 4.5521 -1.00414 -1.15922
lowerneck 2.5286 -8.27031 -7.36868
upperneck 3.26812 -11.5708 11.6377
head 1.66717 -5.79833 4.48774
rclavicle -6.98231e-015 2.38542e-014
rhumerus -39.0698 -3.80461 -80.1812
rradius 31.9295
rwrist 2.34946
rhand -1.45845 -47.7333
rfingers 7.12502
rthumb 24.1927 -76.2274
lclavicle -6.98231e-015 2.38542e-014
lhumerus -30.5841 17.7433 73.6777
lradius 31.0963
lwrist 162.247
lhand -27.8463 11.5659
lfingers 7.12502
lthumb -1.23743 41.542
rfemur -12.9812 8.79157 22.3298
rtibia 29.8885
rfoot -29.4661 -9.23026
rtoes 18.4721
lfemur -19.819 -4.01732 -11.7802
ltibia 43.7442
lfoot -29.1105 -8.93836
ltoes 3.39063
40
root 10.4185 20.3445 -16.0979 4.73839 -4.75629 -4.16485
lowerback -6.3087 -1.4186 2.43553
upperback 1.07139 -2.10206 0.342377
thorax 4.57494 -0.981841 -1.22431
lowerneck 2.53475 -8.39706 -7.2535
upperneck 3.20201 -11.7279 11.5002
head 1.64741 -5.87753 4.42453
rclavicle 2.13942e-014 1.51076e-014
rhumerus -39.0247 -3.90109 -80.2128
rradius 31.9179
rwrist 2.1977
rhand -1.69192 -47.4573
rfingers 7.12502
rthumb 23.9689 -75.981
lclavicle 2.13942e-014 1.51076e-014
lhumerus -30.5778 17.3657 73.7611
lradius 31.2388
lwrist 162.505
lhand -27.9091 11.477
lfingers 7.12502
lthumb -1.29814 41.4528
rfemur -12.9694 8.80938 22.3962
rtibia 29.8696
rfoot -29.4763 -9.23823
rtoes 18.4371
lfemur -19.8101 -4.02563 -11.7138
ltibia 43.7538
lfoot -29.1075 -9.02404
ltoes 3.81489
41
root 10.4194 20.3454 -16.1025 4.7721 -4.75933 -4.21103
lowerback -6.35521 -1.39909 2.47112
upperback 1.10016 -2.08176 0.361558
thorax 4.63153 -0.970016 -1.22431
lowerneck 2.38789 -8.50099 -7.16549
upperneck 3.246 -11.8558 11.3367
head 1.68184 -5.93586 4.349
rclavicle 2.48481e-016 -4.77083e-015
rhumerus -38.9604 -3.94376 -80.1896
rradius 31.9541
rwrist 2.1179
rhand -1.56202 -47.5727
rfingers 7.12502
rthumb 24.0934 -76.08
lclavicle 2.48481e-016 -4.77083e-015
lhumerus -30.5805 16.9929 73.9022
lradius 31.4289
lwrist 162.807
lhand -27.9108 11.4435
lfingers 7.12502
lthumb -1.29976 41.4193
rfemur -13.0092 8.86549 22.4402
rtibia 29.8544
rfoot -29.4878 -9.28179
rtoes 18.6026
lfemur -19.8699 -4.02308 -11.657
ltibia 43.7596
lfoot -29.0562 -9.09153
ltoes 4.27384
42
root 10.4197 20.347 -16.1071 4.83637 -4.74125 -4.25186
lowerback -6.40874 -1.41291 2.47151
upperback 1.09923 -2.1036 0.39887
thorax 4.66144 -0.980881 -1.1897
lowerneck 2.22577 -8.55121 -7.19102
upperneck 3.35472 -11.925 11.3194
head 1.74736 -5.96373 4.33425
rclavicle 2.36802e-014 -2.66371e-014
rhumerus -38.9371 -3.88907 -80.1757
rradius 32.045
rwrist 2.03403
rhand -1.10708 -48.0496
rfingers 7.12502
rthumb 24.5296 -76.4984
lclavicle 2.36802e-014 -2.66371e-014
lhumerus -30.5918 17.0163 73.9453
lradius 31.4974
lwrist 162.787
lhand -27.8178 11.5746
lfingers 7.12502
lthumb -1.20994 41.5509
rfemur -13.0914 8.91734 22.4754
rtibia 29.8536
rfoot -29.5333 -9.30337
rtoes 18.7862
lfemur -19.9734 -3.97284 -11.598
ltibia 43.7585
lfoot -28.9903 -9.06758
ltoes 4.10739
